<svg width="23" height="23" viewBox="0 0 23 23" fill="none" xmlns="http://www.w3.org/2000/svg">
<path d="M21.7121 20.3471L15.5037 14.2717C16.9756 12.6014 17.7385 10.4431 17.6357 8.2398C17.533 6.03647 16.5723 3.95517 14.9509 2.42302C13.3296 0.890878 11.1706 0.0240832 8.91685 0.000494325C6.66308 -0.0230945 4.48558 0.798335 2.83114 2.2962C1.17669 3.79406 0.170717 5.85475 0.0198093 8.05543C-0.131099 10.2561 0.584506 12.4298 2.01961 14.1306C3.45472 15.8313 5.50049 16.9301 7.73727 17.2014C9.97406 17.4727 12.2322 16.896 14.0482 15.5895L20.306 21.7134C20.398 21.8042 20.5076 21.8763 20.6282 21.9255C20.7489 21.9747 20.8784 22 21.0091 22C21.1398 22 21.2692 21.9747 21.3898 21.9255C21.5105 21.8763 21.62 21.8042 21.7121 21.7134C21.8965 21.5318 22 21.2863 22 21.0303C22 20.7743 21.8965 20.5287 21.7121 20.3471ZM2.13637 8.71955C2.13441 7.41405 2.52822 6.13734 3.26796 5.05092C4.00771 3.96451 5.06018 3.11722 6.29214 2.6163C7.52411 2.11537 8.88021 1.98333 10.1889 2.23685C11.4976 2.49036 12.7 3.11805 13.644 4.0405C14.588 4.96295 15.2312 6.13871 15.4922 7.41898C15.7532 8.69926 15.6202 10.0265 15.1101 11.2328C14.6001 12.4391 13.7358 13.4703 12.6267 14.1958C11.5176 14.9213 10.2136 15.3085 8.8795 15.3085C7.09626 15.3085 5.38551 14.6173 4.12179 13.3861C2.85807 12.1549 2.14423 10.484 2.13637 8.73895V8.71955Z" fill="white"/>
</svg>
